<svg width="80" height="80" viewBox="0 0 80 80" fill="none" xmlns="http://www.w3.org/2000/svg">
<rect width="80" height="80" rx="40" fill="#FF4343"/>
<path d="M42.4698 40.0001L53.4948 28.9926C53.8244 28.663 54.0095 28.2161 54.0095 27.7501C54.0095 27.2841 53.8244 26.8371 53.4948 26.5076C53.1653 26.178 52.7184 25.9929 52.2523 25.9929C51.7863 25.9929 51.3394 26.178 51.0098 26.5076L40.0023 37.5326L28.9948 26.5076C28.6653 26.178 28.2184 25.9929 27.7523 25.9929C27.2863 25.9929 26.8394 26.178 26.5098 26.5076C26.1803 26.8371 25.9952 27.2841 25.9952 27.7501C25.9952 28.2161 26.1803 28.663 26.5098 28.9926L37.5348 40.0001L26.5098 51.0076C26.3458 51.1703 26.2156 51.3638 26.1268 51.5771C26.0379 51.7903 25.9922 52.0191 25.9922 52.2501C25.9922 52.4811 26.0379 52.7098 26.1268 52.9231C26.2156 53.1363 26.3458 53.3299 26.5098 53.4926C26.6725 53.6566 26.8661 53.7868 27.0793 53.8756C27.2926 53.9645 27.5213 54.0102 27.7523 54.0102C27.9834 54.0102 28.2121 53.9645 28.4253 53.8756C28.6386 53.7868 28.8321 53.6566 28.9948 53.4926L40.0023 42.4676L51.0098 53.4926C51.1725 53.6566 51.3661 53.7868 51.5793 53.8756C51.7926 53.9645 52.0213 54.0102 52.2523 54.0102C52.4834 54.0102 52.7121 53.9645 52.9253 53.8756C53.1386 53.7868 53.3321 53.6566 53.4948 53.4926C53.6589 53.3299 53.7891 53.1363 53.8779 52.9231C53.9667 52.7098 54.0125 52.4811 54.0125 52.2501C54.0125 52.0191 53.9667 51.7903 53.8779 51.5771C53.7891 51.3638 53.6589 51.1703 53.4948 51.0076L42.4698 40.0001Z" fill="white"/>
</svg>
