<svg width="18" height="14" viewBox="0 0 18 14" fill="none" xmlns="http://www.w3.org/2000/svg">
<path fillRule="evenodd" clipRule="evenodd" d="M2.12719 0L0.96582 1.00917L15.9106 14L17.072 12.9905L2.12719 0Z" fill="#94A3B8"/>
<path d="M3.41945 3.1418L4.51257 4.09198C3.31595 4.97761 2.36308 6.08001 1.74733 7.04453L1.74545 7.04779C3.46032 9.54008 6.18131 11.8955 9.61554 11.5382C10.5425 11.4417 11.4073 11.1663 12.1974 10.7722L13.304 11.7338C11.7639 12.593 9.99842 13.0481 8.08555 12.8232C4.63632 12.4177 1.81595 9.95861 0.0380859 7.0706C0.872832 5.61063 2.0147 4.21389 3.41945 3.1418ZM5.90568 1.73365C6.87018 1.3601 7.9138 1.1404 9.0283 1.12476C9.09017 1.12443 9.82479 1.15475 10.1578 1.20234C10.3667 1.23233 10.5748 1.26981 10.7799 1.31642C14.0518 2.05733 16.4758 4.46162 17.9998 6.93859C17.3604 8.06087 16.523 9.1561 15.5244 10.0945L14.4643 9.17305C15.2019 8.48201 15.8169 7.71274 16.2905 6.96662C16.2905 6.96662 15.8143 6.30101 15.4531 5.88313C15.221 5.61454 14.9769 5.35377 14.7204 5.10245C14.5179 4.90427 13.7315 4.23116 13.5444 4.091C12.2889 3.15256 10.8148 2.41621 9.04667 2.4286C8.36192 2.43805 7.70343 2.5554 7.0783 2.75293L5.90568 1.73365Z" fill="#94A3B8"/>
<path fillRule="evenodd" clipRule="evenodd" d="M6.39519 5.72877L7.29481 6.51043C7.23594 6.66591 7.20369 6.83215 7.20369 7.00458C7.20369 7.87555 8.01706 8.58256 9.01906 8.58256C9.21743 8.58256 9.40868 8.55485 9.58755 8.50335L10.4872 9.28533C10.0529 9.4972 9.55193 9.61781 9.01906 9.61781C7.35969 9.61781 6.0127 8.44696 6.0127 7.00458C6.0127 6.54139 6.15182 6.10624 6.39519 5.72877ZM8.96356 4.39201C8.98193 4.39168 9.00068 4.39136 9.01906 4.39136C10.6784 4.39136 12.0254 5.56253 12.0254 7.00458C12.0254 7.02088 12.0254 7.03685 12.025 7.05282L8.96356 4.39201Z" fill="#94A3B8"/>
</svg>
